<?xml version="1.0" ?><!DOCTYPE svg  PUBLIC '-//W3C//DTD SVG 1.1//EN'  'http://www.w3.org/Graphics/SVG/1.1/DTD/svg11.dtd'><svg enable-background="new 0 0 24 24" height="24px" id="Layer_1" version="1.1" viewBox="0 0 24 24" width="24px" xml:space="preserve" xmlns="http://www.w3.org/2000/svg" xmlns:xlink="http://www.w3.org/1999/xlink"><path d="M23.7,11.6L21.4,10l2.3-1.6c0.4-0.3,0.4-0.7,0-0.9l-11-7.3c-0.4-0.3-1-0.3-1.4,0l-11,7.3c-0.4,0.3-0.4,0.7,0,0.9L2.6,10  l-2.3,1.6c-0.4,0.3-0.4,0.7,0,0.9L2.6,14l-2.3,1.5c-0.4,0.3-0.4,0.7,0,0.9l11,7.3c0.4,0.3,1,0.3,1.4,0l11-7.3c0.4-0.3,0.4-0.7,0-0.9  L21.4,14l2.3-1.5C24.1,12.2,24.1,11.8,23.7,11.6z M2.7,8L12,1.9L21.2,8L12,14.2L2.7,8z M21.2,16L12,22.2L2.7,16L4.1,15l7.2,4.8  c0.4,0.3,1,0.3,1.4,0l7.2-4.8L21.2,16z M12,18.2L2.7,12l1.5-1l7.1,4.7c0.4,0.3,1,0.3,1.4,0l7.1-4.7l1.5,1L12,18.2z"/></svg>